<?xml version="1.0" standalone="no"?>
<!DOCTYPE svg PUBLIC "-//W3C//DTD SVG 20010904//EN"
 "http://www.w3.org/TR/2001/REC-SVG-20010904/DTD/svg10.dtd">
<svg version="1.0" xmlns="http://www.w3.org/2000/svg"
 width="1280.000000pt" height="990.000000pt" viewBox="0 0 1280.000000 990.000000"
 preserveAspectRatio="xMidYMid meet">
<metadata>
Created by potrace 1.15, written by Peter Selinger 2001-2017
</metadata>
<g transform="translate(0.000000,990.000000) scale(0.100000,-0.100000)"
fill="#000000" stroke="none">
<path d="M3062 8051 c-1668 -1017 -3038 -1853 -3045 -1860 -61 -61 305 -13
718 93 697 181 1674 545 2619 979 285 130 918 447 1156 577 899 494 1478 936
1635 1249 l26 53 37 -63 c45 -77 228 -265 362 -372 289 -229 724 -497 1265
-780 1606 -837 3914 -1670 4815 -1736 129 -9 140 -8 140 12 0 7 -222 134 -492
284 -271 149 -1775 978 -3342 1842 -1567 864 -2852 1571 -2855 1571 -3 -1
-1371 -832 -3039 -1849z"/>
<path d="M12503 5814 c-572 -83 -1640 -548 -2868 -1249 -1562 -891 -2834
-1847 -3158 -2373 l-45 -73 -26 50 c-252 503 -1543 1398 -3266 2265 -1275 642
-2369 1059 -2922 1115 -54 5 -102 13 -108 16 -6 3 -10 -4 -9 -17 1 -19 225
-172 1359 -927 l1359 -904 7 -43 c8 -54 -12 -384 -31 -523 -32 -228 -101 -514
-172 -721 -23 -66 -81 -170 -193 -347 -48 -77 -40 -86 67 -76 130 12 285 7
398 -12 333 -57 754 -238 1174 -505 666 -423 883 -564 1091 -709 629 -439 651
-450 1325 -677 259 -87 318 -104 330 -94 8 7 15 17 15 22 0 19 -118 133 -235
228 -66 53 -331 256 -590 451 -258 195 -554 421 -656 502 -174 137 -238 190
-528 441 -381 330 -739 525 -1111 605 -101 21 -350 55 -488 66 -45 4 -82 9
-82 11 0 3 17 39 39 82 118 237 219 547 277 849 4 20 154 -77 1457 -946 l1452
-968 1493 1049 c820 576 1495 1048 1498 1048 12 0 -4 -270 -31 -560 -15 -151
-24 -289 -22 -306 l5 -30 -131 -18 c-338 -46 -508 -127 -732 -351 -113 -113
-235 -267 -348 -442 -301 -463 -698 -1220 -785 -1493 -29 -94 -33 -125 -17
-146 9 -12 17 -15 23 -9 4 6 48 60 97 120 113 140 580 607 840 841 110 99 369
328 575 509 417 367 807 724 948 867 l93 94 -25 125 c-61 301 -93 579 -102
873 l-6 201 1482 1040 c815 572 1490 1045 1499 1052 22 17 -92 15 -216 -3z"/>
</g>
</svg>
